<svg width="501" height="500" viewBox="0 0 501 500" fill="none" xmlns="http://www.w3.org/2000/svg">
<path fill-rule="evenodd" clip-rule="evenodd" d="M140.139 112.561L195.194 167.62L307.806 55L335.334 82.5294L166.416 251.46L193.943 278.989L362.861 110.059L500.498 247.706L364.112 384.101L309.057 329.042L192.692 445.417L165.164 417.887L336.084 246.955L308.557 219.425L137.637 390.358L0 252.711L140.139 112.561ZM391.139 246.955L336.585 301.513L364.112 329.042L445.443 247.706L362.861 165.118L336.084 191.896L391.139 246.955ZM137.637 335.299L166.416 306.518L111.361 251.46L167.667 195.15L140.139 167.62L55.0548 252.711L137.637 335.299Z" fill="black"/>
</svg>
